<mxfile host="app.diagrams.net" modified="2022-12-21T11:28:36.766Z" agent="5.0 (Windows NT 10.0; Win64; x64) AppleWebKit/537.36 (KHTML, like Gecko) Chrome/108.0.0.0 Safari/537.36" version="20.7.4" etag="LNJeOTsSK65CzvxDmJQD" type="github">
  <diagram id="6cpznStejUpgVC8dJE-n" name="Trang-1">
    <mxGraphModel dx="1436" dy="977" grid="0" gridSize="10" guides="1" tooltips="1" connect="1" arrows="1" fold="1" page="0" pageScale="1" pageWidth="827" pageHeight="1169" math="0" shadow="0">
      <root>
        <mxCell id="0" />
        <mxCell id="1" parent="0" />
        <mxCell id="HmvhqRgsKepvLTDn4VfP-1" value="card_atm" style="shape=table;startSize=30;container=1;collapsible=1;childLayout=tableLayout;fixedRows=1;rowLines=0;fontStyle=1;align=center;resizeLast=1;strokeColor=#BAC8D3;fontSize=16;fontColor=#EEEEEE;fillColor=#09555B;" vertex="1" parent="1">
          <mxGeometry x="343" y="-75" width="180" height="180" as="geometry" />
        </mxCell>
        <mxCell id="HmvhqRgsKepvLTDn4VfP-2" value="" style="shape=tableRow;horizontal=0;startSize=0;swimlaneHead=0;swimlaneBody=0;fillColor=none;collapsible=0;dropTarget=0;points=[[0,0.5],[1,0.5]];portConstraint=eastwest;top=0;left=0;right=0;bottom=1;strokeColor=#BAC8D3;fontSize=16;fontColor=#EEEEEE;" vertex="1" parent="HmvhqRgsKepvLTDn4VfP-1">
          <mxGeometry y="30" width="180" height="30" as="geometry" />
        </mxCell>
        <mxCell id="HmvhqRgsKepvLTDn4VfP-3" value="PK" style="shape=partialRectangle;connectable=0;fillColor=none;top=0;left=0;bottom=0;right=0;fontStyle=1;overflow=hidden;strokeColor=#BAC8D3;fontSize=16;fontColor=#EEEEEE;" vertex="1" parent="HmvhqRgsKepvLTDn4VfP-2">
          <mxGeometry width="30" height="30" as="geometry">
            <mxRectangle width="30" height="30" as="alternateBounds" />
          </mxGeometry>
        </mxCell>
        <mxCell id="HmvhqRgsKepvLTDn4VfP-4" value="CARD_ID" style="shape=partialRectangle;connectable=0;fillColor=none;top=0;left=0;bottom=0;right=0;align=left;spacingLeft=6;fontStyle=5;overflow=hidden;strokeColor=#BAC8D3;fontSize=16;fontColor=#EEEEEE;" vertex="1" parent="HmvhqRgsKepvLTDn4VfP-2">
          <mxGeometry x="30" width="150" height="30" as="geometry">
            <mxRectangle width="150" height="30" as="alternateBounds" />
          </mxGeometry>
        </mxCell>
        <mxCell id="HmvhqRgsKepvLTDn4VfP-5" value="" style="shape=tableRow;horizontal=0;startSize=0;swimlaneHead=0;swimlaneBody=0;fillColor=none;collapsible=0;dropTarget=0;points=[[0,0.5],[1,0.5]];portConstraint=eastwest;top=0;left=0;right=0;bottom=0;strokeColor=#BAC8D3;fontSize=16;fontColor=#EEEEEE;" vertex="1" parent="HmvhqRgsKepvLTDn4VfP-1">
          <mxGeometry y="60" width="180" height="30" as="geometry" />
        </mxCell>
        <mxCell id="HmvhqRgsKepvLTDn4VfP-6" value="" style="shape=partialRectangle;connectable=0;fillColor=none;top=0;left=0;bottom=0;right=0;editable=1;overflow=hidden;strokeColor=#BAC8D3;fontSize=16;fontColor=#EEEEEE;" vertex="1" parent="HmvhqRgsKepvLTDn4VfP-5">
          <mxGeometry width="30" height="30" as="geometry">
            <mxRectangle width="30" height="30" as="alternateBounds" />
          </mxGeometry>
        </mxCell>
        <mxCell id="HmvhqRgsKepvLTDn4VfP-7" value="USER_ID" style="shape=partialRectangle;connectable=0;fillColor=none;top=0;left=0;bottom=0;right=0;align=left;spacingLeft=6;overflow=hidden;strokeColor=#BAC8D3;fontSize=16;fontColor=#EEEEEE;" vertex="1" parent="HmvhqRgsKepvLTDn4VfP-5">
          <mxGeometry x="30" width="150" height="30" as="geometry">
            <mxRectangle width="150" height="30" as="alternateBounds" />
          </mxGeometry>
        </mxCell>
        <mxCell id="HmvhqRgsKepvLTDn4VfP-8" value="" style="shape=tableRow;horizontal=0;startSize=0;swimlaneHead=0;swimlaneBody=0;fillColor=none;collapsible=0;dropTarget=0;points=[[0,0.5],[1,0.5]];portConstraint=eastwest;top=0;left=0;right=0;bottom=0;strokeColor=#BAC8D3;fontSize=16;fontColor=#EEEEEE;" vertex="1" parent="HmvhqRgsKepvLTDn4VfP-1">
          <mxGeometry y="90" width="180" height="30" as="geometry" />
        </mxCell>
        <mxCell id="HmvhqRgsKepvLTDn4VfP-9" value="" style="shape=partialRectangle;connectable=0;fillColor=none;top=0;left=0;bottom=0;right=0;editable=1;overflow=hidden;strokeColor=#BAC8D3;fontSize=16;fontColor=#EEEEEE;" vertex="1" parent="HmvhqRgsKepvLTDn4VfP-8">
          <mxGeometry width="30" height="30" as="geometry">
            <mxRectangle width="30" height="30" as="alternateBounds" />
          </mxGeometry>
        </mxCell>
        <mxCell id="HmvhqRgsKepvLTDn4VfP-10" value="DATE_RELEASE" style="shape=partialRectangle;connectable=0;fillColor=none;top=0;left=0;bottom=0;right=0;align=left;spacingLeft=6;overflow=hidden;strokeColor=#BAC8D3;fontSize=16;fontColor=#EEEEEE;" vertex="1" parent="HmvhqRgsKepvLTDn4VfP-8">
          <mxGeometry x="30" width="150" height="30" as="geometry">
            <mxRectangle width="150" height="30" as="alternateBounds" />
          </mxGeometry>
        </mxCell>
        <mxCell id="HmvhqRgsKepvLTDn4VfP-11" value="" style="shape=tableRow;horizontal=0;startSize=0;swimlaneHead=0;swimlaneBody=0;fillColor=none;collapsible=0;dropTarget=0;points=[[0,0.5],[1,0.5]];portConstraint=eastwest;top=0;left=0;right=0;bottom=0;strokeColor=#BAC8D3;fontSize=16;fontColor=#EEEEEE;" vertex="1" parent="HmvhqRgsKepvLTDn4VfP-1">
          <mxGeometry y="120" width="180" height="30" as="geometry" />
        </mxCell>
        <mxCell id="HmvhqRgsKepvLTDn4VfP-12" value="" style="shape=partialRectangle;connectable=0;fillColor=none;top=0;left=0;bottom=0;right=0;editable=1;overflow=hidden;strokeColor=#BAC8D3;fontSize=16;fontColor=#EEEEEE;" vertex="1" parent="HmvhqRgsKepvLTDn4VfP-11">
          <mxGeometry width="30" height="30" as="geometry">
            <mxRectangle width="30" height="30" as="alternateBounds" />
          </mxGeometry>
        </mxCell>
        <mxCell id="HmvhqRgsKepvLTDn4VfP-13" value="DATE_EXPIRY" style="shape=partialRectangle;connectable=0;fillColor=none;top=0;left=0;bottom=0;right=0;align=left;spacingLeft=6;overflow=hidden;strokeColor=#BAC8D3;fontSize=16;fontColor=#EEEEEE;" vertex="1" parent="HmvhqRgsKepvLTDn4VfP-11">
          <mxGeometry x="30" width="150" height="30" as="geometry">
            <mxRectangle width="150" height="30" as="alternateBounds" />
          </mxGeometry>
        </mxCell>
        <mxCell id="HmvhqRgsKepvLTDn4VfP-79" value="" style="shape=tableRow;horizontal=0;startSize=0;swimlaneHead=0;swimlaneBody=0;fillColor=none;collapsible=0;dropTarget=0;points=[[0,0.5],[1,0.5]];portConstraint=eastwest;top=0;left=0;right=0;bottom=0;strokeColor=#BAC8D3;fontSize=16;fontColor=#EEEEEE;" vertex="1" parent="HmvhqRgsKepvLTDn4VfP-1">
          <mxGeometry y="150" width="180" height="30" as="geometry" />
        </mxCell>
        <mxCell id="HmvhqRgsKepvLTDn4VfP-80" value="" style="shape=partialRectangle;connectable=0;fillColor=none;top=0;left=0;bottom=0;right=0;editable=1;overflow=hidden;strokeColor=#BAC8D3;fontSize=16;fontColor=#EEEEEE;" vertex="1" parent="HmvhqRgsKepvLTDn4VfP-79">
          <mxGeometry width="30" height="30" as="geometry">
            <mxRectangle width="30" height="30" as="alternateBounds" />
          </mxGeometry>
        </mxCell>
        <mxCell id="HmvhqRgsKepvLTDn4VfP-81" value="COIN" style="shape=partialRectangle;connectable=0;fillColor=none;top=0;left=0;bottom=0;right=0;align=left;spacingLeft=6;overflow=hidden;strokeColor=#BAC8D3;fontSize=16;fontColor=#EEEEEE;" vertex="1" parent="HmvhqRgsKepvLTDn4VfP-79">
          <mxGeometry x="30" width="150" height="30" as="geometry">
            <mxRectangle width="150" height="30" as="alternateBounds" />
          </mxGeometry>
        </mxCell>
        <mxCell id="HmvhqRgsKepvLTDn4VfP-14" value="atm_machine" style="shape=table;startSize=30;container=1;collapsible=1;childLayout=tableLayout;fixedRows=1;rowLines=0;fontStyle=1;align=center;resizeLast=1;strokeColor=#BAC8D3;fontSize=16;fontColor=#EEEEEE;fillColor=#09555B;" vertex="1" parent="1">
          <mxGeometry x="605" y="-25" width="293" height="150" as="geometry" />
        </mxCell>
        <mxCell id="HmvhqRgsKepvLTDn4VfP-15" value="" style="shape=tableRow;horizontal=0;startSize=0;swimlaneHead=0;swimlaneBody=0;fillColor=none;collapsible=0;dropTarget=0;points=[[0,0.5],[1,0.5]];portConstraint=eastwest;top=0;left=0;right=0;bottom=1;strokeColor=#BAC8D3;fontSize=16;fontColor=#EEEEEE;" vertex="1" parent="HmvhqRgsKepvLTDn4VfP-14">
          <mxGeometry y="30" width="293" height="30" as="geometry" />
        </mxCell>
        <mxCell id="HmvhqRgsKepvLTDn4VfP-16" value="PK" style="shape=partialRectangle;connectable=0;fillColor=none;top=0;left=0;bottom=0;right=0;fontStyle=1;overflow=hidden;strokeColor=#BAC8D3;fontSize=16;fontColor=#EEEEEE;" vertex="1" parent="HmvhqRgsKepvLTDn4VfP-15">
          <mxGeometry width="30" height="30" as="geometry">
            <mxRectangle width="30" height="30" as="alternateBounds" />
          </mxGeometry>
        </mxCell>
        <mxCell id="HmvhqRgsKepvLTDn4VfP-17" value="MACHINE_ID" style="shape=partialRectangle;connectable=0;fillColor=none;top=0;left=0;bottom=0;right=0;align=left;spacingLeft=6;fontStyle=5;overflow=hidden;strokeColor=#BAC8D3;fontSize=16;fontColor=#EEEEEE;" vertex="1" parent="HmvhqRgsKepvLTDn4VfP-15">
          <mxGeometry x="30" width="263" height="30" as="geometry">
            <mxRectangle width="263" height="30" as="alternateBounds" />
          </mxGeometry>
        </mxCell>
        <mxCell id="HmvhqRgsKepvLTDn4VfP-18" value="" style="shape=tableRow;horizontal=0;startSize=0;swimlaneHead=0;swimlaneBody=0;fillColor=none;collapsible=0;dropTarget=0;points=[[0,0.5],[1,0.5]];portConstraint=eastwest;top=0;left=0;right=0;bottom=0;strokeColor=#BAC8D3;fontSize=16;fontColor=#EEEEEE;" vertex="1" parent="HmvhqRgsKepvLTDn4VfP-14">
          <mxGeometry y="60" width="293" height="30" as="geometry" />
        </mxCell>
        <mxCell id="HmvhqRgsKepvLTDn4VfP-19" value="FK" style="shape=partialRectangle;connectable=0;fillColor=none;top=0;left=0;bottom=0;right=0;editable=1;overflow=hidden;strokeColor=#BAC8D3;fontSize=16;fontColor=#EEEEEE;" vertex="1" parent="HmvhqRgsKepvLTDn4VfP-18">
          <mxGeometry width="30" height="30" as="geometry">
            <mxRectangle width="30" height="30" as="alternateBounds" />
          </mxGeometry>
        </mxCell>
        <mxCell id="HmvhqRgsKepvLTDn4VfP-20" value="MACHINE_ADDRESS_ID" style="shape=partialRectangle;connectable=0;fillColor=none;top=0;left=0;bottom=0;right=0;align=left;spacingLeft=6;overflow=hidden;strokeColor=#BAC8D3;fontSize=16;fontColor=#EEEEEE;" vertex="1" parent="HmvhqRgsKepvLTDn4VfP-18">
          <mxGeometry x="30" width="263" height="30" as="geometry">
            <mxRectangle width="263" height="30" as="alternateBounds" />
          </mxGeometry>
        </mxCell>
        <mxCell id="HmvhqRgsKepvLTDn4VfP-21" value="" style="shape=tableRow;horizontal=0;startSize=0;swimlaneHead=0;swimlaneBody=0;fillColor=none;collapsible=0;dropTarget=0;points=[[0,0.5],[1,0.5]];portConstraint=eastwest;top=0;left=0;right=0;bottom=0;strokeColor=#BAC8D3;fontSize=16;fontColor=#EEEEEE;" vertex="1" parent="HmvhqRgsKepvLTDn4VfP-14">
          <mxGeometry y="90" width="293" height="30" as="geometry" />
        </mxCell>
        <mxCell id="HmvhqRgsKepvLTDn4VfP-22" value="" style="shape=partialRectangle;connectable=0;fillColor=none;top=0;left=0;bottom=0;right=0;editable=1;overflow=hidden;strokeColor=#BAC8D3;fontSize=16;fontColor=#EEEEEE;" vertex="1" parent="HmvhqRgsKepvLTDn4VfP-21">
          <mxGeometry width="30" height="30" as="geometry">
            <mxRectangle width="30" height="30" as="alternateBounds" />
          </mxGeometry>
        </mxCell>
        <mxCell id="HmvhqRgsKepvLTDn4VfP-23" value="MACHINE_BANK" style="shape=partialRectangle;connectable=0;fillColor=none;top=0;left=0;bottom=0;right=0;align=left;spacingLeft=6;overflow=hidden;strokeColor=#BAC8D3;fontSize=16;fontColor=#EEEEEE;" vertex="1" parent="HmvhqRgsKepvLTDn4VfP-21">
          <mxGeometry x="30" width="263" height="30" as="geometry">
            <mxRectangle width="263" height="30" as="alternateBounds" />
          </mxGeometry>
        </mxCell>
        <mxCell id="HmvhqRgsKepvLTDn4VfP-40" value="" style="shape=tableRow;horizontal=0;startSize=0;swimlaneHead=0;swimlaneBody=0;fillColor=none;collapsible=0;dropTarget=0;points=[[0,0.5],[1,0.5]];portConstraint=eastwest;top=0;left=0;right=0;bottom=0;strokeColor=#BAC8D3;fontSize=16;fontColor=#EEEEEE;" vertex="1" parent="HmvhqRgsKepvLTDn4VfP-14">
          <mxGeometry y="120" width="293" height="30" as="geometry" />
        </mxCell>
        <mxCell id="HmvhqRgsKepvLTDn4VfP-41" value="FK" style="shape=partialRectangle;connectable=0;fillColor=none;top=0;left=0;bottom=0;right=0;editable=1;overflow=hidden;strokeColor=#BAC8D3;fontSize=16;fontColor=#EEEEEE;" vertex="1" parent="HmvhqRgsKepvLTDn4VfP-40">
          <mxGeometry width="30" height="30" as="geometry">
            <mxRectangle width="30" height="30" as="alternateBounds" />
          </mxGeometry>
        </mxCell>
        <mxCell id="HmvhqRgsKepvLTDn4VfP-42" value="INFOR_MACHINE_ID" style="shape=partialRectangle;connectable=0;fillColor=none;top=0;left=0;bottom=0;right=0;align=left;spacingLeft=6;overflow=hidden;strokeColor=#BAC8D3;fontSize=16;fontColor=#EEEEEE;" vertex="1" parent="HmvhqRgsKepvLTDn4VfP-40">
          <mxGeometry x="30" width="263" height="30" as="geometry">
            <mxRectangle width="263" height="30" as="alternateBounds" />
          </mxGeometry>
        </mxCell>
        <mxCell id="HmvhqRgsKepvLTDn4VfP-27" value="bank" style="shape=table;startSize=30;container=1;collapsible=1;childLayout=tableLayout;fixedRows=1;rowLines=0;fontStyle=1;align=center;resizeLast=1;strokeColor=#BAC8D3;fontSize=16;fontColor=#EEEEEE;fillColor=#09555B;" vertex="1" parent="1">
          <mxGeometry x="435" y="164" width="216" height="150" as="geometry" />
        </mxCell>
        <mxCell id="HmvhqRgsKepvLTDn4VfP-28" value="" style="shape=tableRow;horizontal=0;startSize=0;swimlaneHead=0;swimlaneBody=0;fillColor=none;collapsible=0;dropTarget=0;points=[[0,0.5],[1,0.5]];portConstraint=eastwest;top=0;left=0;right=0;bottom=1;strokeColor=#BAC8D3;fontSize=16;fontColor=#EEEEEE;" vertex="1" parent="HmvhqRgsKepvLTDn4VfP-27">
          <mxGeometry y="30" width="216" height="30" as="geometry" />
        </mxCell>
        <mxCell id="HmvhqRgsKepvLTDn4VfP-29" value="PK" style="shape=partialRectangle;connectable=0;fillColor=none;top=0;left=0;bottom=0;right=0;fontStyle=1;overflow=hidden;strokeColor=#BAC8D3;fontSize=16;fontColor=#EEEEEE;" vertex="1" parent="HmvhqRgsKepvLTDn4VfP-28">
          <mxGeometry width="30" height="30" as="geometry">
            <mxRectangle width="30" height="30" as="alternateBounds" />
          </mxGeometry>
        </mxCell>
        <mxCell id="HmvhqRgsKepvLTDn4VfP-30" value="BANK_ID" style="shape=partialRectangle;connectable=0;fillColor=none;top=0;left=0;bottom=0;right=0;align=left;spacingLeft=6;fontStyle=5;overflow=hidden;strokeColor=#BAC8D3;fontSize=16;fontColor=#EEEEEE;" vertex="1" parent="HmvhqRgsKepvLTDn4VfP-28">
          <mxGeometry x="30" width="186" height="30" as="geometry">
            <mxRectangle width="186" height="30" as="alternateBounds" />
          </mxGeometry>
        </mxCell>
        <mxCell id="HmvhqRgsKepvLTDn4VfP-31" value="" style="shape=tableRow;horizontal=0;startSize=0;swimlaneHead=0;swimlaneBody=0;fillColor=none;collapsible=0;dropTarget=0;points=[[0,0.5],[1,0.5]];portConstraint=eastwest;top=0;left=0;right=0;bottom=0;strokeColor=#BAC8D3;fontSize=16;fontColor=#EEEEEE;" vertex="1" parent="HmvhqRgsKepvLTDn4VfP-27">
          <mxGeometry y="60" width="216" height="30" as="geometry" />
        </mxCell>
        <mxCell id="HmvhqRgsKepvLTDn4VfP-32" value="" style="shape=partialRectangle;connectable=0;fillColor=none;top=0;left=0;bottom=0;right=0;editable=1;overflow=hidden;strokeColor=#BAC8D3;fontSize=16;fontColor=#EEEEEE;" vertex="1" parent="HmvhqRgsKepvLTDn4VfP-31">
          <mxGeometry width="30" height="30" as="geometry">
            <mxRectangle width="30" height="30" as="alternateBounds" />
          </mxGeometry>
        </mxCell>
        <mxCell id="HmvhqRgsKepvLTDn4VfP-33" value="BANK_NAME" style="shape=partialRectangle;connectable=0;fillColor=none;top=0;left=0;bottom=0;right=0;align=left;spacingLeft=6;overflow=hidden;strokeColor=#BAC8D3;fontSize=16;fontColor=#EEEEEE;" vertex="1" parent="HmvhqRgsKepvLTDn4VfP-31">
          <mxGeometry x="30" width="186" height="30" as="geometry">
            <mxRectangle width="186" height="30" as="alternateBounds" />
          </mxGeometry>
        </mxCell>
        <mxCell id="HmvhqRgsKepvLTDn4VfP-34" value="" style="shape=tableRow;horizontal=0;startSize=0;swimlaneHead=0;swimlaneBody=0;fillColor=none;collapsible=0;dropTarget=0;points=[[0,0.5],[1,0.5]];portConstraint=eastwest;top=0;left=0;right=0;bottom=0;strokeColor=#BAC8D3;fontSize=16;fontColor=#EEEEEE;" vertex="1" parent="HmvhqRgsKepvLTDn4VfP-27">
          <mxGeometry y="90" width="216" height="30" as="geometry" />
        </mxCell>
        <mxCell id="HmvhqRgsKepvLTDn4VfP-35" value="FK" style="shape=partialRectangle;connectable=0;fillColor=none;top=0;left=0;bottom=0;right=0;editable=1;overflow=hidden;strokeColor=#BAC8D3;fontSize=16;fontColor=#EEEEEE;" vertex="1" parent="HmvhqRgsKepvLTDn4VfP-34">
          <mxGeometry width="30" height="30" as="geometry">
            <mxRectangle width="30" height="30" as="alternateBounds" />
          </mxGeometry>
        </mxCell>
        <mxCell id="HmvhqRgsKepvLTDn4VfP-36" value="BANK_ADDRESS_ID" style="shape=partialRectangle;connectable=0;fillColor=none;top=0;left=0;bottom=0;right=0;align=left;spacingLeft=6;overflow=hidden;strokeColor=#BAC8D3;fontSize=16;fontColor=#EEEEEE;" vertex="1" parent="HmvhqRgsKepvLTDn4VfP-34">
          <mxGeometry x="30" width="186" height="30" as="geometry">
            <mxRectangle width="186" height="30" as="alternateBounds" />
          </mxGeometry>
        </mxCell>
        <mxCell id="HmvhqRgsKepvLTDn4VfP-37" value="" style="shape=tableRow;horizontal=0;startSize=0;swimlaneHead=0;swimlaneBody=0;fillColor=none;collapsible=0;dropTarget=0;points=[[0,0.5],[1,0.5]];portConstraint=eastwest;top=0;left=0;right=0;bottom=0;strokeColor=#BAC8D3;fontSize=16;fontColor=#EEEEEE;" vertex="1" parent="HmvhqRgsKepvLTDn4VfP-27">
          <mxGeometry y="120" width="216" height="30" as="geometry" />
        </mxCell>
        <mxCell id="HmvhqRgsKepvLTDn4VfP-38" value="FK" style="shape=partialRectangle;connectable=0;fillColor=none;top=0;left=0;bottom=0;right=0;editable=1;overflow=hidden;strokeColor=#BAC8D3;fontSize=16;fontColor=#EEEEEE;" vertex="1" parent="HmvhqRgsKepvLTDn4VfP-37">
          <mxGeometry width="30" height="30" as="geometry">
            <mxRectangle width="30" height="30" as="alternateBounds" />
          </mxGeometry>
        </mxCell>
        <mxCell id="HmvhqRgsKepvLTDn4VfP-39" value="BANK_CONTACT_ID" style="shape=partialRectangle;connectable=0;fillColor=none;top=0;left=0;bottom=0;right=0;align=left;spacingLeft=6;overflow=hidden;strokeColor=#BAC8D3;fontSize=16;fontColor=#EEEEEE;" vertex="1" parent="HmvhqRgsKepvLTDn4VfP-37">
          <mxGeometry x="30" width="186" height="30" as="geometry">
            <mxRectangle width="186" height="30" as="alternateBounds" />
          </mxGeometry>
        </mxCell>
        <mxCell id="HmvhqRgsKepvLTDn4VfP-43" value="user" style="shape=table;startSize=30;container=1;collapsible=1;childLayout=tableLayout;fixedRows=1;rowLines=0;fontStyle=1;align=center;resizeLast=1;strokeColor=#BAC8D3;fontSize=16;fontColor=#EEEEEE;fillColor=#09555B;" vertex="1" parent="1">
          <mxGeometry x="-5" y="-58" width="180" height="120" as="geometry" />
        </mxCell>
        <mxCell id="HmvhqRgsKepvLTDn4VfP-44" value="" style="shape=tableRow;horizontal=0;startSize=0;swimlaneHead=0;swimlaneBody=0;fillColor=none;collapsible=0;dropTarget=0;points=[[0,0.5],[1,0.5]];portConstraint=eastwest;top=0;left=0;right=0;bottom=1;strokeColor=#BAC8D3;fontSize=16;fontColor=#EEEEEE;" vertex="1" parent="HmvhqRgsKepvLTDn4VfP-43">
          <mxGeometry y="30" width="180" height="30" as="geometry" />
        </mxCell>
        <mxCell id="HmvhqRgsKepvLTDn4VfP-45" value="PK" style="shape=partialRectangle;connectable=0;fillColor=none;top=0;left=0;bottom=0;right=0;fontStyle=1;overflow=hidden;strokeColor=#BAC8D3;fontSize=16;fontColor=#EEEEEE;" vertex="1" parent="HmvhqRgsKepvLTDn4VfP-44">
          <mxGeometry width="30" height="30" as="geometry">
            <mxRectangle width="30" height="30" as="alternateBounds" />
          </mxGeometry>
        </mxCell>
        <mxCell id="HmvhqRgsKepvLTDn4VfP-46" value="USER_ID" style="shape=partialRectangle;connectable=0;fillColor=none;top=0;left=0;bottom=0;right=0;align=left;spacingLeft=6;fontStyle=5;overflow=hidden;strokeColor=#BAC8D3;fontSize=16;fontColor=#EEEEEE;" vertex="1" parent="HmvhqRgsKepvLTDn4VfP-44">
          <mxGeometry x="30" width="150" height="30" as="geometry">
            <mxRectangle width="150" height="30" as="alternateBounds" />
          </mxGeometry>
        </mxCell>
        <mxCell id="HmvhqRgsKepvLTDn4VfP-47" value="" style="shape=tableRow;horizontal=0;startSize=0;swimlaneHead=0;swimlaneBody=0;fillColor=none;collapsible=0;dropTarget=0;points=[[0,0.5],[1,0.5]];portConstraint=eastwest;top=0;left=0;right=0;bottom=0;strokeColor=#BAC8D3;fontSize=16;fontColor=#EEEEEE;" vertex="1" parent="HmvhqRgsKepvLTDn4VfP-43">
          <mxGeometry y="60" width="180" height="30" as="geometry" />
        </mxCell>
        <mxCell id="HmvhqRgsKepvLTDn4VfP-48" value="" style="shape=partialRectangle;connectable=0;fillColor=none;top=0;left=0;bottom=0;right=0;editable=1;overflow=hidden;strokeColor=#BAC8D3;fontSize=16;fontColor=#EEEEEE;" vertex="1" parent="HmvhqRgsKepvLTDn4VfP-47">
          <mxGeometry width="30" height="30" as="geometry">
            <mxRectangle width="30" height="30" as="alternateBounds" />
          </mxGeometry>
        </mxCell>
        <mxCell id="HmvhqRgsKepvLTDn4VfP-49" value="USER_NAME" style="shape=partialRectangle;connectable=0;fillColor=none;top=0;left=0;bottom=0;right=0;align=left;spacingLeft=6;overflow=hidden;strokeColor=#BAC8D3;fontSize=16;fontColor=#EEEEEE;" vertex="1" parent="HmvhqRgsKepvLTDn4VfP-47">
          <mxGeometry x="30" width="150" height="30" as="geometry">
            <mxRectangle width="150" height="30" as="alternateBounds" />
          </mxGeometry>
        </mxCell>
        <mxCell id="HmvhqRgsKepvLTDn4VfP-50" value="" style="shape=tableRow;horizontal=0;startSize=0;swimlaneHead=0;swimlaneBody=0;fillColor=none;collapsible=0;dropTarget=0;points=[[0,0.5],[1,0.5]];portConstraint=eastwest;top=0;left=0;right=0;bottom=0;strokeColor=#BAC8D3;fontSize=16;fontColor=#EEEEEE;" vertex="1" parent="HmvhqRgsKepvLTDn4VfP-43">
          <mxGeometry y="90" width="180" height="30" as="geometry" />
        </mxCell>
        <mxCell id="HmvhqRgsKepvLTDn4VfP-51" value="FK" style="shape=partialRectangle;connectable=0;fillColor=none;top=0;left=0;bottom=0;right=0;editable=1;overflow=hidden;strokeColor=#BAC8D3;fontSize=16;fontColor=#EEEEEE;" vertex="1" parent="HmvhqRgsKepvLTDn4VfP-50">
          <mxGeometry width="30" height="30" as="geometry">
            <mxRectangle width="30" height="30" as="alternateBounds" />
          </mxGeometry>
        </mxCell>
        <mxCell id="HmvhqRgsKepvLTDn4VfP-52" value="CARD_ID" style="shape=partialRectangle;connectable=0;fillColor=none;top=0;left=0;bottom=0;right=0;align=left;spacingLeft=6;overflow=hidden;strokeColor=#BAC8D3;fontSize=16;fontColor=#EEEEEE;" vertex="1" parent="HmvhqRgsKepvLTDn4VfP-50">
          <mxGeometry x="30" width="150" height="30" as="geometry">
            <mxRectangle width="150" height="30" as="alternateBounds" />
          </mxGeometry>
        </mxCell>
        <mxCell id="HmvhqRgsKepvLTDn4VfP-60" value="infor_user" style="shape=table;startSize=30;container=1;collapsible=1;childLayout=tableLayout;fixedRows=1;rowLines=0;fontStyle=1;align=center;resizeLast=1;strokeColor=#BAC8D3;fontSize=16;fontColor=#EEEEEE;fillColor=#09555B;" vertex="1" parent="1">
          <mxGeometry x="-33" y="122" width="347" height="210" as="geometry" />
        </mxCell>
        <mxCell id="HmvhqRgsKepvLTDn4VfP-61" value="" style="shape=tableRow;horizontal=0;startSize=0;swimlaneHead=0;swimlaneBody=0;fillColor=none;collapsible=0;dropTarget=0;points=[[0,0.5],[1,0.5]];portConstraint=eastwest;top=0;left=0;right=0;bottom=1;strokeColor=#BAC8D3;fontSize=16;fontColor=#EEEEEE;" vertex="1" parent="HmvhqRgsKepvLTDn4VfP-60">
          <mxGeometry y="30" width="347" height="30" as="geometry" />
        </mxCell>
        <mxCell id="HmvhqRgsKepvLTDn4VfP-62" value="PK" style="shape=partialRectangle;connectable=0;fillColor=none;top=0;left=0;bottom=0;right=0;fontStyle=1;overflow=hidden;strokeColor=#BAC8D3;fontSize=16;fontColor=#EEEEEE;" vertex="1" parent="HmvhqRgsKepvLTDn4VfP-61">
          <mxGeometry width="30" height="30" as="geometry">
            <mxRectangle width="30" height="30" as="alternateBounds" />
          </mxGeometry>
        </mxCell>
        <mxCell id="HmvhqRgsKepvLTDn4VfP-63" value="INFOR_ID" style="shape=partialRectangle;connectable=0;fillColor=none;top=0;left=0;bottom=0;right=0;align=left;spacingLeft=6;fontStyle=5;overflow=hidden;strokeColor=#BAC8D3;fontSize=16;fontColor=#EEEEEE;" vertex="1" parent="HmvhqRgsKepvLTDn4VfP-61">
          <mxGeometry x="30" width="317" height="30" as="geometry">
            <mxRectangle width="317" height="30" as="alternateBounds" />
          </mxGeometry>
        </mxCell>
        <mxCell id="HmvhqRgsKepvLTDn4VfP-64" value="" style="shape=tableRow;horizontal=0;startSize=0;swimlaneHead=0;swimlaneBody=0;fillColor=none;collapsible=0;dropTarget=0;points=[[0,0.5],[1,0.5]];portConstraint=eastwest;top=0;left=0;right=0;bottom=0;strokeColor=#BAC8D3;fontSize=16;fontColor=#EEEEEE;" vertex="1" parent="HmvhqRgsKepvLTDn4VfP-60">
          <mxGeometry y="60" width="347" height="30" as="geometry" />
        </mxCell>
        <mxCell id="HmvhqRgsKepvLTDn4VfP-65" value="" style="shape=partialRectangle;connectable=0;fillColor=none;top=0;left=0;bottom=0;right=0;editable=1;overflow=hidden;strokeColor=#BAC8D3;fontSize=16;fontColor=#EEEEEE;" vertex="1" parent="HmvhqRgsKepvLTDn4VfP-64">
          <mxGeometry width="30" height="30" as="geometry">
            <mxRectangle width="30" height="30" as="alternateBounds" />
          </mxGeometry>
        </mxCell>
        <mxCell id="HmvhqRgsKepvLTDn4VfP-66" value="USER_NAME" style="shape=partialRectangle;connectable=0;fillColor=none;top=0;left=0;bottom=0;right=0;align=left;spacingLeft=6;overflow=hidden;strokeColor=#BAC8D3;fontSize=16;fontColor=#EEEEEE;" vertex="1" parent="HmvhqRgsKepvLTDn4VfP-64">
          <mxGeometry x="30" width="317" height="30" as="geometry">
            <mxRectangle width="317" height="30" as="alternateBounds" />
          </mxGeometry>
        </mxCell>
        <mxCell id="HmvhqRgsKepvLTDn4VfP-67" value="" style="shape=tableRow;horizontal=0;startSize=0;swimlaneHead=0;swimlaneBody=0;fillColor=none;collapsible=0;dropTarget=0;points=[[0,0.5],[1,0.5]];portConstraint=eastwest;top=0;left=0;right=0;bottom=0;strokeColor=#BAC8D3;fontSize=16;fontColor=#EEEEEE;" vertex="1" parent="HmvhqRgsKepvLTDn4VfP-60">
          <mxGeometry y="90" width="347" height="30" as="geometry" />
        </mxCell>
        <mxCell id="HmvhqRgsKepvLTDn4VfP-68" value="" style="shape=partialRectangle;connectable=0;fillColor=none;top=0;left=0;bottom=0;right=0;editable=1;overflow=hidden;strokeColor=#BAC8D3;fontSize=16;fontColor=#EEEEEE;" vertex="1" parent="HmvhqRgsKepvLTDn4VfP-67">
          <mxGeometry width="30" height="30" as="geometry">
            <mxRectangle width="30" height="30" as="alternateBounds" />
          </mxGeometry>
        </mxCell>
        <mxCell id="HmvhqRgsKepvLTDn4VfP-69" value="USER_ADDRESS" style="shape=partialRectangle;connectable=0;fillColor=none;top=0;left=0;bottom=0;right=0;align=left;spacingLeft=6;overflow=hidden;strokeColor=#BAC8D3;fontSize=16;fontColor=#EEEEEE;" vertex="1" parent="HmvhqRgsKepvLTDn4VfP-67">
          <mxGeometry x="30" width="317" height="30" as="geometry">
            <mxRectangle width="317" height="30" as="alternateBounds" />
          </mxGeometry>
        </mxCell>
        <mxCell id="HmvhqRgsKepvLTDn4VfP-70" value="" style="shape=tableRow;horizontal=0;startSize=0;swimlaneHead=0;swimlaneBody=0;fillColor=none;collapsible=0;dropTarget=0;points=[[0,0.5],[1,0.5]];portConstraint=eastwest;top=0;left=0;right=0;bottom=0;strokeColor=#BAC8D3;fontSize=16;fontColor=#EEEEEE;" vertex="1" parent="HmvhqRgsKepvLTDn4VfP-60">
          <mxGeometry y="120" width="347" height="30" as="geometry" />
        </mxCell>
        <mxCell id="HmvhqRgsKepvLTDn4VfP-71" value="" style="shape=partialRectangle;connectable=0;fillColor=none;top=0;left=0;bottom=0;right=0;editable=1;overflow=hidden;strokeColor=#BAC8D3;fontSize=16;fontColor=#EEEEEE;" vertex="1" parent="HmvhqRgsKepvLTDn4VfP-70">
          <mxGeometry width="30" height="30" as="geometry">
            <mxRectangle width="30" height="30" as="alternateBounds" />
          </mxGeometry>
        </mxCell>
        <mxCell id="HmvhqRgsKepvLTDn4VfP-72" value="USER_EMAIL" style="shape=partialRectangle;connectable=0;fillColor=none;top=0;left=0;bottom=0;right=0;align=left;spacingLeft=6;overflow=hidden;strokeColor=#BAC8D3;fontSize=16;fontColor=#EEEEEE;" vertex="1" parent="HmvhqRgsKepvLTDn4VfP-70">
          <mxGeometry x="30" width="317" height="30" as="geometry">
            <mxRectangle width="317" height="30" as="alternateBounds" />
          </mxGeometry>
        </mxCell>
        <mxCell id="HmvhqRgsKepvLTDn4VfP-73" value="" style="shape=tableRow;horizontal=0;startSize=0;swimlaneHead=0;swimlaneBody=0;fillColor=none;collapsible=0;dropTarget=0;points=[[0,0.5],[1,0.5]];portConstraint=eastwest;top=0;left=0;right=0;bottom=0;strokeColor=#BAC8D3;fontSize=16;fontColor=#EEEEEE;" vertex="1" parent="HmvhqRgsKepvLTDn4VfP-60">
          <mxGeometry y="150" width="347" height="30" as="geometry" />
        </mxCell>
        <mxCell id="HmvhqRgsKepvLTDn4VfP-74" value="" style="shape=partialRectangle;connectable=0;fillColor=none;top=0;left=0;bottom=0;right=0;editable=1;overflow=hidden;strokeColor=#BAC8D3;fontSize=16;fontColor=#EEEEEE;" vertex="1" parent="HmvhqRgsKepvLTDn4VfP-73">
          <mxGeometry width="30" height="30" as="geometry">
            <mxRectangle width="30" height="30" as="alternateBounds" />
          </mxGeometry>
        </mxCell>
        <mxCell id="HmvhqRgsKepvLTDn4VfP-75" value="USER_PHONE_NUMBER" style="shape=partialRectangle;connectable=0;fillColor=none;top=0;left=0;bottom=0;right=0;align=left;spacingLeft=6;overflow=hidden;strokeColor=#BAC8D3;fontSize=16;fontColor=#EEEEEE;" vertex="1" parent="HmvhqRgsKepvLTDn4VfP-73">
          <mxGeometry x="30" width="317" height="30" as="geometry">
            <mxRectangle width="317" height="30" as="alternateBounds" />
          </mxGeometry>
        </mxCell>
        <mxCell id="HmvhqRgsKepvLTDn4VfP-76" value="" style="shape=tableRow;horizontal=0;startSize=0;swimlaneHead=0;swimlaneBody=0;fillColor=none;collapsible=0;dropTarget=0;points=[[0,0.5],[1,0.5]];portConstraint=eastwest;top=0;left=0;right=0;bottom=0;strokeColor=#BAC8D3;fontSize=16;fontColor=#EEEEEE;" vertex="1" parent="HmvhqRgsKepvLTDn4VfP-60">
          <mxGeometry y="180" width="347" height="30" as="geometry" />
        </mxCell>
        <mxCell id="HmvhqRgsKepvLTDn4VfP-77" value="FK" style="shape=partialRectangle;connectable=0;fillColor=none;top=0;left=0;bottom=0;right=0;editable=1;overflow=hidden;strokeColor=#BAC8D3;fontSize=16;fontColor=#EEEEEE;" vertex="1" parent="HmvhqRgsKepvLTDn4VfP-76">
          <mxGeometry width="30" height="30" as="geometry">
            <mxRectangle width="30" height="30" as="alternateBounds" />
          </mxGeometry>
        </mxCell>
        <mxCell id="HmvhqRgsKepvLTDn4VfP-78" value="CARD_ID" style="shape=partialRectangle;connectable=0;fillColor=none;top=0;left=0;bottom=0;right=0;align=left;spacingLeft=6;overflow=hidden;strokeColor=#BAC8D3;fontSize=16;fontColor=#EEEEEE;" vertex="1" parent="HmvhqRgsKepvLTDn4VfP-76">
          <mxGeometry x="30" width="317" height="30" as="geometry">
            <mxRectangle width="317" height="30" as="alternateBounds" />
          </mxGeometry>
        </mxCell>
        <mxCell id="HmvhqRgsKepvLTDn4VfP-82" value="user_name" style="shape=table;startSize=30;container=1;collapsible=1;childLayout=tableLayout;fixedRows=1;rowLines=0;fontStyle=1;align=center;resizeLast=1;strokeColor=#BAC8D3;fontSize=16;fontColor=#EEEEEE;fillColor=#09555B;" vertex="1" parent="1">
          <mxGeometry x="-241" y="-65" width="180" height="150" as="geometry" />
        </mxCell>
        <mxCell id="HmvhqRgsKepvLTDn4VfP-83" value="" style="shape=tableRow;horizontal=0;startSize=0;swimlaneHead=0;swimlaneBody=0;fillColor=none;collapsible=0;dropTarget=0;points=[[0,0.5],[1,0.5]];portConstraint=eastwest;top=0;left=0;right=0;bottom=1;strokeColor=#BAC8D3;fontSize=16;fontColor=#EEEEEE;" vertex="1" parent="HmvhqRgsKepvLTDn4VfP-82">
          <mxGeometry y="30" width="180" height="30" as="geometry" />
        </mxCell>
        <mxCell id="HmvhqRgsKepvLTDn4VfP-84" value="PK" style="shape=partialRectangle;connectable=0;fillColor=none;top=0;left=0;bottom=0;right=0;fontStyle=1;overflow=hidden;strokeColor=#BAC8D3;fontSize=16;fontColor=#EEEEEE;" vertex="1" parent="HmvhqRgsKepvLTDn4VfP-83">
          <mxGeometry width="30" height="30" as="geometry">
            <mxRectangle width="30" height="30" as="alternateBounds" />
          </mxGeometry>
        </mxCell>
        <mxCell id="HmvhqRgsKepvLTDn4VfP-85" value="USER_ID" style="shape=partialRectangle;connectable=0;fillColor=none;top=0;left=0;bottom=0;right=0;align=left;spacingLeft=6;fontStyle=5;overflow=hidden;strokeColor=#BAC8D3;fontSize=16;fontColor=#EEEEEE;" vertex="1" parent="HmvhqRgsKepvLTDn4VfP-83">
          <mxGeometry x="30" width="150" height="30" as="geometry">
            <mxRectangle width="150" height="30" as="alternateBounds" />
          </mxGeometry>
        </mxCell>
        <mxCell id="HmvhqRgsKepvLTDn4VfP-86" value="" style="shape=tableRow;horizontal=0;startSize=0;swimlaneHead=0;swimlaneBody=0;fillColor=none;collapsible=0;dropTarget=0;points=[[0,0.5],[1,0.5]];portConstraint=eastwest;top=0;left=0;right=0;bottom=0;strokeColor=#BAC8D3;fontSize=16;fontColor=#EEEEEE;" vertex="1" parent="HmvhqRgsKepvLTDn4VfP-82">
          <mxGeometry y="60" width="180" height="30" as="geometry" />
        </mxCell>
        <mxCell id="HmvhqRgsKepvLTDn4VfP-87" value="FK" style="shape=partialRectangle;connectable=0;fillColor=none;top=0;left=0;bottom=0;right=0;editable=1;overflow=hidden;strokeColor=#BAC8D3;fontSize=16;fontColor=#EEEEEE;" vertex="1" parent="HmvhqRgsKepvLTDn4VfP-86">
          <mxGeometry width="30" height="30" as="geometry">
            <mxRectangle width="30" height="30" as="alternateBounds" />
          </mxGeometry>
        </mxCell>
        <mxCell id="HmvhqRgsKepvLTDn4VfP-88" value="INFOR_USER_ID" style="shape=partialRectangle;connectable=0;fillColor=none;top=0;left=0;bottom=0;right=0;align=left;spacingLeft=6;overflow=hidden;strokeColor=#BAC8D3;fontSize=16;fontColor=#EEEEEE;" vertex="1" parent="HmvhqRgsKepvLTDn4VfP-86">
          <mxGeometry x="30" width="150" height="30" as="geometry">
            <mxRectangle width="150" height="30" as="alternateBounds" />
          </mxGeometry>
        </mxCell>
        <mxCell id="HmvhqRgsKepvLTDn4VfP-89" value="" style="shape=tableRow;horizontal=0;startSize=0;swimlaneHead=0;swimlaneBody=0;fillColor=none;collapsible=0;dropTarget=0;points=[[0,0.5],[1,0.5]];portConstraint=eastwest;top=0;left=0;right=0;bottom=0;strokeColor=#BAC8D3;fontSize=16;fontColor=#EEEEEE;" vertex="1" parent="HmvhqRgsKepvLTDn4VfP-82">
          <mxGeometry y="90" width="180" height="30" as="geometry" />
        </mxCell>
        <mxCell id="HmvhqRgsKepvLTDn4VfP-90" value="" style="shape=partialRectangle;connectable=0;fillColor=none;top=0;left=0;bottom=0;right=0;editable=1;overflow=hidden;strokeColor=#BAC8D3;fontSize=16;fontColor=#EEEEEE;" vertex="1" parent="HmvhqRgsKepvLTDn4VfP-89">
          <mxGeometry width="30" height="30" as="geometry">
            <mxRectangle width="30" height="30" as="alternateBounds" />
          </mxGeometry>
        </mxCell>
        <mxCell id="HmvhqRgsKepvLTDn4VfP-91" value="USER_FIRSTNAME" style="shape=partialRectangle;connectable=0;fillColor=none;top=0;left=0;bottom=0;right=0;align=left;spacingLeft=6;overflow=hidden;strokeColor=#BAC8D3;fontSize=16;fontColor=#EEEEEE;" vertex="1" parent="HmvhqRgsKepvLTDn4VfP-89">
          <mxGeometry x="30" width="150" height="30" as="geometry">
            <mxRectangle width="150" height="30" as="alternateBounds" />
          </mxGeometry>
        </mxCell>
        <mxCell id="HmvhqRgsKepvLTDn4VfP-92" value="" style="shape=tableRow;horizontal=0;startSize=0;swimlaneHead=0;swimlaneBody=0;fillColor=none;collapsible=0;dropTarget=0;points=[[0,0.5],[1,0.5]];portConstraint=eastwest;top=0;left=0;right=0;bottom=0;strokeColor=#BAC8D3;fontSize=16;fontColor=#EEEEEE;" vertex="1" parent="HmvhqRgsKepvLTDn4VfP-82">
          <mxGeometry y="120" width="180" height="30" as="geometry" />
        </mxCell>
        <mxCell id="HmvhqRgsKepvLTDn4VfP-93" value="" style="shape=partialRectangle;connectable=0;fillColor=none;top=0;left=0;bottom=0;right=0;editable=1;overflow=hidden;strokeColor=#BAC8D3;fontSize=16;fontColor=#EEEEEE;" vertex="1" parent="HmvhqRgsKepvLTDn4VfP-92">
          <mxGeometry width="30" height="30" as="geometry">
            <mxRectangle width="30" height="30" as="alternateBounds" />
          </mxGeometry>
        </mxCell>
        <mxCell id="HmvhqRgsKepvLTDn4VfP-94" value="USER_LASTNAME" style="shape=partialRectangle;connectable=0;fillColor=none;top=0;left=0;bottom=0;right=0;align=left;spacingLeft=6;overflow=hidden;strokeColor=#BAC8D3;fontSize=16;fontColor=#EEEEEE;" vertex="1" parent="HmvhqRgsKepvLTDn4VfP-92">
          <mxGeometry x="30" width="150" height="30" as="geometry">
            <mxRectangle width="150" height="30" as="alternateBounds" />
          </mxGeometry>
        </mxCell>
        <mxCell id="HmvhqRgsKepvLTDn4VfP-109" value="infor_machine" style="shape=table;startSize=30;container=1;collapsible=1;childLayout=tableLayout;fixedRows=1;rowLines=0;fontStyle=1;align=center;resizeLast=1;strokeColor=#BAC8D3;fontSize=16;fontColor=#EEEEEE;fillColor=#09555B;" vertex="1" parent="1">
          <mxGeometry x="762" y="182" width="244" height="150" as="geometry" />
        </mxCell>
        <mxCell id="HmvhqRgsKepvLTDn4VfP-110" value="" style="shape=tableRow;horizontal=0;startSize=0;swimlaneHead=0;swimlaneBody=0;fillColor=none;collapsible=0;dropTarget=0;points=[[0,0.5],[1,0.5]];portConstraint=eastwest;top=0;left=0;right=0;bottom=1;strokeColor=#BAC8D3;fontSize=16;fontColor=#EEEEEE;" vertex="1" parent="HmvhqRgsKepvLTDn4VfP-109">
          <mxGeometry y="30" width="244" height="30" as="geometry" />
        </mxCell>
        <mxCell id="HmvhqRgsKepvLTDn4VfP-111" value="PK" style="shape=partialRectangle;connectable=0;fillColor=none;top=0;left=0;bottom=0;right=0;fontStyle=1;overflow=hidden;strokeColor=#BAC8D3;fontSize=16;fontColor=#EEEEEE;" vertex="1" parent="HmvhqRgsKepvLTDn4VfP-110">
          <mxGeometry width="30" height="30" as="geometry">
            <mxRectangle width="30" height="30" as="alternateBounds" />
          </mxGeometry>
        </mxCell>
        <mxCell id="HmvhqRgsKepvLTDn4VfP-112" value="INFOR_MACHINE_ID" style="shape=partialRectangle;connectable=0;fillColor=none;top=0;left=0;bottom=0;right=0;align=left;spacingLeft=6;fontStyle=5;overflow=hidden;strokeColor=#BAC8D3;fontSize=16;fontColor=#EEEEEE;" vertex="1" parent="HmvhqRgsKepvLTDn4VfP-110">
          <mxGeometry x="30" width="214" height="30" as="geometry">
            <mxRectangle width="214" height="30" as="alternateBounds" />
          </mxGeometry>
        </mxCell>
        <mxCell id="HmvhqRgsKepvLTDn4VfP-113" value="" style="shape=tableRow;horizontal=0;startSize=0;swimlaneHead=0;swimlaneBody=0;fillColor=none;collapsible=0;dropTarget=0;points=[[0,0.5],[1,0.5]];portConstraint=eastwest;top=0;left=0;right=0;bottom=0;strokeColor=#BAC8D3;fontSize=16;fontColor=#EEEEEE;" vertex="1" parent="HmvhqRgsKepvLTDn4VfP-109">
          <mxGeometry y="60" width="244" height="30" as="geometry" />
        </mxCell>
        <mxCell id="HmvhqRgsKepvLTDn4VfP-114" value="" style="shape=partialRectangle;connectable=0;fillColor=none;top=0;left=0;bottom=0;right=0;editable=1;overflow=hidden;strokeColor=#BAC8D3;fontSize=16;fontColor=#EEEEEE;" vertex="1" parent="HmvhqRgsKepvLTDn4VfP-113">
          <mxGeometry width="30" height="30" as="geometry">
            <mxRectangle width="30" height="30" as="alternateBounds" />
          </mxGeometry>
        </mxCell>
        <mxCell id="HmvhqRgsKepvLTDn4VfP-115" value="MACHINE_NAME" style="shape=partialRectangle;connectable=0;fillColor=none;top=0;left=0;bottom=0;right=0;align=left;spacingLeft=6;overflow=hidden;strokeColor=#BAC8D3;fontSize=16;fontColor=#EEEEEE;" vertex="1" parent="HmvhqRgsKepvLTDn4VfP-113">
          <mxGeometry x="30" width="214" height="30" as="geometry">
            <mxRectangle width="214" height="30" as="alternateBounds" />
          </mxGeometry>
        </mxCell>
        <mxCell id="HmvhqRgsKepvLTDn4VfP-116" value="" style="shape=tableRow;horizontal=0;startSize=0;swimlaneHead=0;swimlaneBody=0;fillColor=none;collapsible=0;dropTarget=0;points=[[0,0.5],[1,0.5]];portConstraint=eastwest;top=0;left=0;right=0;bottom=0;strokeColor=#BAC8D3;fontSize=16;fontColor=#EEEEEE;" vertex="1" parent="HmvhqRgsKepvLTDn4VfP-109">
          <mxGeometry y="90" width="244" height="30" as="geometry" />
        </mxCell>
        <mxCell id="HmvhqRgsKepvLTDn4VfP-117" value="" style="shape=partialRectangle;connectable=0;fillColor=none;top=0;left=0;bottom=0;right=0;editable=1;overflow=hidden;strokeColor=#BAC8D3;fontSize=16;fontColor=#EEEEEE;" vertex="1" parent="HmvhqRgsKepvLTDn4VfP-116">
          <mxGeometry width="30" height="30" as="geometry">
            <mxRectangle width="30" height="30" as="alternateBounds" />
          </mxGeometry>
        </mxCell>
        <mxCell id="HmvhqRgsKepvLTDn4VfP-118" value="COIN " style="shape=partialRectangle;connectable=0;fillColor=none;top=0;left=0;bottom=0;right=0;align=left;spacingLeft=6;overflow=hidden;strokeColor=#BAC8D3;fontSize=16;fontColor=#EEEEEE;" vertex="1" parent="HmvhqRgsKepvLTDn4VfP-116">
          <mxGeometry x="30" width="214" height="30" as="geometry">
            <mxRectangle width="214" height="30" as="alternateBounds" />
          </mxGeometry>
        </mxCell>
        <mxCell id="HmvhqRgsKepvLTDn4VfP-119" value="" style="shape=tableRow;horizontal=0;startSize=0;swimlaneHead=0;swimlaneBody=0;fillColor=none;collapsible=0;dropTarget=0;points=[[0,0.5],[1,0.5]];portConstraint=eastwest;top=0;left=0;right=0;bottom=0;strokeColor=#BAC8D3;fontSize=16;fontColor=#EEEEEE;" vertex="1" parent="HmvhqRgsKepvLTDn4VfP-109">
          <mxGeometry y="120" width="244" height="30" as="geometry" />
        </mxCell>
        <mxCell id="HmvhqRgsKepvLTDn4VfP-120" value="" style="shape=partialRectangle;connectable=0;fillColor=none;top=0;left=0;bottom=0;right=0;editable=1;overflow=hidden;strokeColor=#BAC8D3;fontSize=16;fontColor=#EEEEEE;" vertex="1" parent="HmvhqRgsKepvLTDn4VfP-119">
          <mxGeometry width="30" height="30" as="geometry">
            <mxRectangle width="30" height="30" as="alternateBounds" />
          </mxGeometry>
        </mxCell>
        <mxCell id="HmvhqRgsKepvLTDn4VfP-121" value="MACHINE_BANK" style="shape=partialRectangle;connectable=0;fillColor=none;top=0;left=0;bottom=0;right=0;align=left;spacingLeft=6;overflow=hidden;strokeColor=#BAC8D3;fontSize=16;fontColor=#EEEEEE;" vertex="1" parent="HmvhqRgsKepvLTDn4VfP-119">
          <mxGeometry x="30" width="214" height="30" as="geometry">
            <mxRectangle width="214" height="30" as="alternateBounds" />
          </mxGeometry>
        </mxCell>
        <mxCell id="HmvhqRgsKepvLTDn4VfP-144" value="bank_contact" style="shape=table;startSize=30;container=1;collapsible=1;childLayout=tableLayout;fixedRows=1;rowLines=0;fontStyle=1;align=center;resizeLast=1;strokeColor=#BAC8D3;fontSize=16;fontColor=#EEEEEE;fillColor=#09555B;" vertex="1" parent="1">
          <mxGeometry x="535" y="365" width="240" height="120" as="geometry" />
        </mxCell>
        <mxCell id="HmvhqRgsKepvLTDn4VfP-145" value="" style="shape=tableRow;horizontal=0;startSize=0;swimlaneHead=0;swimlaneBody=0;fillColor=none;collapsible=0;dropTarget=0;points=[[0,0.5],[1,0.5]];portConstraint=eastwest;top=0;left=0;right=0;bottom=1;strokeColor=#BAC8D3;fontSize=16;fontColor=#EEEEEE;" vertex="1" parent="HmvhqRgsKepvLTDn4VfP-144">
          <mxGeometry y="30" width="240" height="30" as="geometry" />
        </mxCell>
        <mxCell id="HmvhqRgsKepvLTDn4VfP-146" value="PK" style="shape=partialRectangle;connectable=0;fillColor=none;top=0;left=0;bottom=0;right=0;fontStyle=1;overflow=hidden;strokeColor=#BAC8D3;fontSize=16;fontColor=#EEEEEE;" vertex="1" parent="HmvhqRgsKepvLTDn4VfP-145">
          <mxGeometry width="30" height="30" as="geometry">
            <mxRectangle width="30" height="30" as="alternateBounds" />
          </mxGeometry>
        </mxCell>
        <mxCell id="HmvhqRgsKepvLTDn4VfP-147" value="BANK_CONTACT_ID" style="shape=partialRectangle;connectable=0;fillColor=none;top=0;left=0;bottom=0;right=0;align=left;spacingLeft=6;fontStyle=5;overflow=hidden;strokeColor=#BAC8D3;fontSize=16;fontColor=#EEEEEE;" vertex="1" parent="HmvhqRgsKepvLTDn4VfP-145">
          <mxGeometry x="30" width="210" height="30" as="geometry">
            <mxRectangle width="210" height="30" as="alternateBounds" />
          </mxGeometry>
        </mxCell>
        <mxCell id="HmvhqRgsKepvLTDn4VfP-148" value="" style="shape=tableRow;horizontal=0;startSize=0;swimlaneHead=0;swimlaneBody=0;fillColor=none;collapsible=0;dropTarget=0;points=[[0,0.5],[1,0.5]];portConstraint=eastwest;top=0;left=0;right=0;bottom=0;strokeColor=#BAC8D3;fontSize=16;fontColor=#EEEEEE;" vertex="1" parent="HmvhqRgsKepvLTDn4VfP-144">
          <mxGeometry y="60" width="240" height="30" as="geometry" />
        </mxCell>
        <mxCell id="HmvhqRgsKepvLTDn4VfP-149" value="" style="shape=partialRectangle;connectable=0;fillColor=none;top=0;left=0;bottom=0;right=0;editable=1;overflow=hidden;strokeColor=#BAC8D3;fontSize=16;fontColor=#EEEEEE;" vertex="1" parent="HmvhqRgsKepvLTDn4VfP-148">
          <mxGeometry width="30" height="30" as="geometry">
            <mxRectangle width="30" height="30" as="alternateBounds" />
          </mxGeometry>
        </mxCell>
        <mxCell id="HmvhqRgsKepvLTDn4VfP-150" value="BANK_EMAIL" style="shape=partialRectangle;connectable=0;fillColor=none;top=0;left=0;bottom=0;right=0;align=left;spacingLeft=6;overflow=hidden;strokeColor=#BAC8D3;fontSize=16;fontColor=#EEEEEE;" vertex="1" parent="HmvhqRgsKepvLTDn4VfP-148">
          <mxGeometry x="30" width="210" height="30" as="geometry">
            <mxRectangle width="210" height="30" as="alternateBounds" />
          </mxGeometry>
        </mxCell>
        <mxCell id="HmvhqRgsKepvLTDn4VfP-151" value="" style="shape=tableRow;horizontal=0;startSize=0;swimlaneHead=0;swimlaneBody=0;fillColor=none;collapsible=0;dropTarget=0;points=[[0,0.5],[1,0.5]];portConstraint=eastwest;top=0;left=0;right=0;bottom=0;strokeColor=#BAC8D3;fontSize=16;fontColor=#EEEEEE;" vertex="1" parent="HmvhqRgsKepvLTDn4VfP-144">
          <mxGeometry y="90" width="240" height="30" as="geometry" />
        </mxCell>
        <mxCell id="HmvhqRgsKepvLTDn4VfP-152" value="" style="shape=partialRectangle;connectable=0;fillColor=none;top=0;left=0;bottom=0;right=0;editable=1;overflow=hidden;strokeColor=#BAC8D3;fontSize=16;fontColor=#EEEEEE;" vertex="1" parent="HmvhqRgsKepvLTDn4VfP-151">
          <mxGeometry width="30" height="30" as="geometry">
            <mxRectangle width="30" height="30" as="alternateBounds" />
          </mxGeometry>
        </mxCell>
        <mxCell id="HmvhqRgsKepvLTDn4VfP-153" value="BANK_HOTLINE" style="shape=partialRectangle;connectable=0;fillColor=none;top=0;left=0;bottom=0;right=0;align=left;spacingLeft=6;overflow=hidden;strokeColor=#BAC8D3;fontSize=16;fontColor=#EEEEEE;" vertex="1" parent="HmvhqRgsKepvLTDn4VfP-151">
          <mxGeometry x="30" width="210" height="30" as="geometry">
            <mxRectangle width="210" height="30" as="alternateBounds" />
          </mxGeometry>
        </mxCell>
        <mxCell id="HmvhqRgsKepvLTDn4VfP-157" value="bank_address" style="shape=table;startSize=30;container=1;collapsible=1;childLayout=tableLayout;fixedRows=1;rowLines=0;fontStyle=1;align=center;resizeLast=1;strokeColor=#BAC8D3;fontSize=16;fontColor=#EEEEEE;fillColor=#09555B;" vertex="1" parent="1">
          <mxGeometry x="189" y="365" width="234" height="210" as="geometry" />
        </mxCell>
        <mxCell id="HmvhqRgsKepvLTDn4VfP-158" value="" style="shape=tableRow;horizontal=0;startSize=0;swimlaneHead=0;swimlaneBody=0;fillColor=none;collapsible=0;dropTarget=0;points=[[0,0.5],[1,0.5]];portConstraint=eastwest;top=0;left=0;right=0;bottom=1;strokeColor=#BAC8D3;fontSize=16;fontColor=#EEEEEE;" vertex="1" parent="HmvhqRgsKepvLTDn4VfP-157">
          <mxGeometry y="30" width="234" height="30" as="geometry" />
        </mxCell>
        <mxCell id="HmvhqRgsKepvLTDn4VfP-159" value="PK" style="shape=partialRectangle;connectable=0;fillColor=none;top=0;left=0;bottom=0;right=0;fontStyle=1;overflow=hidden;strokeColor=#BAC8D3;fontSize=16;fontColor=#EEEEEE;" vertex="1" parent="HmvhqRgsKepvLTDn4VfP-158">
          <mxGeometry width="30" height="30" as="geometry">
            <mxRectangle width="30" height="30" as="alternateBounds" />
          </mxGeometry>
        </mxCell>
        <mxCell id="HmvhqRgsKepvLTDn4VfP-160" value="BANK_ADDRESS_ID" style="shape=partialRectangle;connectable=0;fillColor=none;top=0;left=0;bottom=0;right=0;align=left;spacingLeft=6;fontStyle=5;overflow=hidden;strokeColor=#BAC8D3;fontSize=16;fontColor=#EEEEEE;" vertex="1" parent="HmvhqRgsKepvLTDn4VfP-158">
          <mxGeometry x="30" width="204" height="30" as="geometry">
            <mxRectangle width="204" height="30" as="alternateBounds" />
          </mxGeometry>
        </mxCell>
        <mxCell id="HmvhqRgsKepvLTDn4VfP-161" value="" style="shape=tableRow;horizontal=0;startSize=0;swimlaneHead=0;swimlaneBody=0;fillColor=none;collapsible=0;dropTarget=0;points=[[0,0.5],[1,0.5]];portConstraint=eastwest;top=0;left=0;right=0;bottom=0;strokeColor=#BAC8D3;fontSize=16;fontColor=#EEEEEE;" vertex="1" parent="HmvhqRgsKepvLTDn4VfP-157">
          <mxGeometry y="60" width="234" height="30" as="geometry" />
        </mxCell>
        <mxCell id="HmvhqRgsKepvLTDn4VfP-162" value="" style="shape=partialRectangle;connectable=0;fillColor=none;top=0;left=0;bottom=0;right=0;editable=1;overflow=hidden;strokeColor=#BAC8D3;fontSize=16;fontColor=#EEEEEE;" vertex="1" parent="HmvhqRgsKepvLTDn4VfP-161">
          <mxGeometry width="30" height="30" as="geometry">
            <mxRectangle width="30" height="30" as="alternateBounds" />
          </mxGeometry>
        </mxCell>
        <mxCell id="HmvhqRgsKepvLTDn4VfP-163" value="BANK_ADDRESS" style="shape=partialRectangle;connectable=0;fillColor=none;top=0;left=0;bottom=0;right=0;align=left;spacingLeft=6;overflow=hidden;strokeColor=#BAC8D3;fontSize=16;fontColor=#EEEEEE;" vertex="1" parent="HmvhqRgsKepvLTDn4VfP-161">
          <mxGeometry x="30" width="204" height="30" as="geometry">
            <mxRectangle width="204" height="30" as="alternateBounds" />
          </mxGeometry>
        </mxCell>
        <mxCell id="HmvhqRgsKepvLTDn4VfP-164" value="" style="shape=tableRow;horizontal=0;startSize=0;swimlaneHead=0;swimlaneBody=0;fillColor=none;collapsible=0;dropTarget=0;points=[[0,0.5],[1,0.5]];portConstraint=eastwest;top=0;left=0;right=0;bottom=0;strokeColor=#BAC8D3;fontSize=16;fontColor=#EEEEEE;" vertex="1" parent="HmvhqRgsKepvLTDn4VfP-157">
          <mxGeometry y="90" width="234" height="30" as="geometry" />
        </mxCell>
        <mxCell id="HmvhqRgsKepvLTDn4VfP-165" value="" style="shape=partialRectangle;connectable=0;fillColor=none;top=0;left=0;bottom=0;right=0;editable=1;overflow=hidden;strokeColor=#BAC8D3;fontSize=16;fontColor=#EEEEEE;" vertex="1" parent="HmvhqRgsKepvLTDn4VfP-164">
          <mxGeometry width="30" height="30" as="geometry">
            <mxRectangle width="30" height="30" as="alternateBounds" />
          </mxGeometry>
        </mxCell>
        <mxCell id="HmvhqRgsKepvLTDn4VfP-166" value="BANK_STREET" style="shape=partialRectangle;connectable=0;fillColor=none;top=0;left=0;bottom=0;right=0;align=left;spacingLeft=6;overflow=hidden;strokeColor=#BAC8D3;fontSize=16;fontColor=#EEEEEE;" vertex="1" parent="HmvhqRgsKepvLTDn4VfP-164">
          <mxGeometry x="30" width="204" height="30" as="geometry">
            <mxRectangle width="204" height="30" as="alternateBounds" />
          </mxGeometry>
        </mxCell>
        <mxCell id="HmvhqRgsKepvLTDn4VfP-167" value="" style="shape=tableRow;horizontal=0;startSize=0;swimlaneHead=0;swimlaneBody=0;fillColor=none;collapsible=0;dropTarget=0;points=[[0,0.5],[1,0.5]];portConstraint=eastwest;top=0;left=0;right=0;bottom=0;strokeColor=#BAC8D3;fontSize=16;fontColor=#EEEEEE;" vertex="1" parent="HmvhqRgsKepvLTDn4VfP-157">
          <mxGeometry y="120" width="234" height="30" as="geometry" />
        </mxCell>
        <mxCell id="HmvhqRgsKepvLTDn4VfP-168" value="" style="shape=partialRectangle;connectable=0;fillColor=none;top=0;left=0;bottom=0;right=0;editable=1;overflow=hidden;strokeColor=#BAC8D3;fontSize=16;fontColor=#EEEEEE;" vertex="1" parent="HmvhqRgsKepvLTDn4VfP-167">
          <mxGeometry width="30" height="30" as="geometry">
            <mxRectangle width="30" height="30" as="alternateBounds" />
          </mxGeometry>
        </mxCell>
        <mxCell id="HmvhqRgsKepvLTDn4VfP-169" value="BANK_NUMBER" style="shape=partialRectangle;connectable=0;fillColor=none;top=0;left=0;bottom=0;right=0;align=left;spacingLeft=6;overflow=hidden;strokeColor=#BAC8D3;fontSize=16;fontColor=#EEEEEE;" vertex="1" parent="HmvhqRgsKepvLTDn4VfP-167">
          <mxGeometry x="30" width="204" height="30" as="geometry">
            <mxRectangle width="204" height="30" as="alternateBounds" />
          </mxGeometry>
        </mxCell>
        <mxCell id="HmvhqRgsKepvLTDn4VfP-170" value="" style="shape=tableRow;horizontal=0;startSize=0;swimlaneHead=0;swimlaneBody=0;fillColor=none;collapsible=0;dropTarget=0;points=[[0,0.5],[1,0.5]];portConstraint=eastwest;top=0;left=0;right=0;bottom=0;strokeColor=#BAC8D3;fontSize=16;fontColor=#EEEEEE;" vertex="1" parent="HmvhqRgsKepvLTDn4VfP-157">
          <mxGeometry y="150" width="234" height="30" as="geometry" />
        </mxCell>
        <mxCell id="HmvhqRgsKepvLTDn4VfP-171" value="" style="shape=partialRectangle;connectable=0;fillColor=none;top=0;left=0;bottom=0;right=0;editable=1;overflow=hidden;strokeColor=#BAC8D3;fontSize=16;fontColor=#EEEEEE;" vertex="1" parent="HmvhqRgsKepvLTDn4VfP-170">
          <mxGeometry width="30" height="30" as="geometry">
            <mxRectangle width="30" height="30" as="alternateBounds" />
          </mxGeometry>
        </mxCell>
        <mxCell id="HmvhqRgsKepvLTDn4VfP-172" value="BANK_DISTRICT" style="shape=partialRectangle;connectable=0;fillColor=none;top=0;left=0;bottom=0;right=0;align=left;spacingLeft=6;overflow=hidden;strokeColor=#BAC8D3;fontSize=16;fontColor=#EEEEEE;" vertex="1" parent="HmvhqRgsKepvLTDn4VfP-170">
          <mxGeometry x="30" width="204" height="30" as="geometry">
            <mxRectangle width="204" height="30" as="alternateBounds" />
          </mxGeometry>
        </mxCell>
        <mxCell id="HmvhqRgsKepvLTDn4VfP-173" value="" style="shape=tableRow;horizontal=0;startSize=0;swimlaneHead=0;swimlaneBody=0;fillColor=none;collapsible=0;dropTarget=0;points=[[0,0.5],[1,0.5]];portConstraint=eastwest;top=0;left=0;right=0;bottom=0;strokeColor=#BAC8D3;fontSize=16;fontColor=#EEEEEE;" vertex="1" parent="HmvhqRgsKepvLTDn4VfP-157">
          <mxGeometry y="180" width="234" height="30" as="geometry" />
        </mxCell>
        <mxCell id="HmvhqRgsKepvLTDn4VfP-174" value="" style="shape=partialRectangle;connectable=0;fillColor=none;top=0;left=0;bottom=0;right=0;editable=1;overflow=hidden;strokeColor=#BAC8D3;fontSize=16;fontColor=#EEEEEE;" vertex="1" parent="HmvhqRgsKepvLTDn4VfP-173">
          <mxGeometry width="30" height="30" as="geometry">
            <mxRectangle width="30" height="30" as="alternateBounds" />
          </mxGeometry>
        </mxCell>
        <mxCell id="HmvhqRgsKepvLTDn4VfP-175" value="BANK_PROVINCE" style="shape=partialRectangle;connectable=0;fillColor=none;top=0;left=0;bottom=0;right=0;align=left;spacingLeft=6;overflow=hidden;strokeColor=#BAC8D3;fontSize=16;fontColor=#EEEEEE;" vertex="1" parent="HmvhqRgsKepvLTDn4VfP-173">
          <mxGeometry x="30" width="204" height="30" as="geometry">
            <mxRectangle width="204" height="30" as="alternateBounds" />
          </mxGeometry>
        </mxCell>
        <mxCell id="HmvhqRgsKepvLTDn4VfP-176" value="atm_address" style="shape=table;startSize=30;container=1;collapsible=1;childLayout=tableLayout;fixedRows=1;rowLines=0;fontStyle=1;align=center;resizeLast=1;strokeColor=#BAC8D3;fontSize=16;fontColor=#EEEEEE;fillColor=#09555B;" vertex="1" parent="1">
          <mxGeometry x="923" y="-99" width="234" height="210" as="geometry" />
        </mxCell>
        <mxCell id="HmvhqRgsKepvLTDn4VfP-177" value="" style="shape=tableRow;horizontal=0;startSize=0;swimlaneHead=0;swimlaneBody=0;fillColor=none;collapsible=0;dropTarget=0;points=[[0,0.5],[1,0.5]];portConstraint=eastwest;top=0;left=0;right=0;bottom=1;strokeColor=#BAC8D3;fontSize=16;fontColor=#EEEEEE;" vertex="1" parent="HmvhqRgsKepvLTDn4VfP-176">
          <mxGeometry y="30" width="234" height="30" as="geometry" />
        </mxCell>
        <mxCell id="HmvhqRgsKepvLTDn4VfP-178" value="PK" style="shape=partialRectangle;connectable=0;fillColor=none;top=0;left=0;bottom=0;right=0;fontStyle=1;overflow=hidden;strokeColor=#BAC8D3;fontSize=16;fontColor=#EEEEEE;" vertex="1" parent="HmvhqRgsKepvLTDn4VfP-177">
          <mxGeometry width="30" height="30" as="geometry">
            <mxRectangle width="30" height="30" as="alternateBounds" />
          </mxGeometry>
        </mxCell>
        <mxCell id="HmvhqRgsKepvLTDn4VfP-179" value="ATM_ADDRESS_ID" style="shape=partialRectangle;connectable=0;fillColor=none;top=0;left=0;bottom=0;right=0;align=left;spacingLeft=6;fontStyle=5;overflow=hidden;strokeColor=#BAC8D3;fontSize=16;fontColor=#EEEEEE;" vertex="1" parent="HmvhqRgsKepvLTDn4VfP-177">
          <mxGeometry x="30" width="204" height="30" as="geometry">
            <mxRectangle width="204" height="30" as="alternateBounds" />
          </mxGeometry>
        </mxCell>
        <mxCell id="HmvhqRgsKepvLTDn4VfP-180" value="" style="shape=tableRow;horizontal=0;startSize=0;swimlaneHead=0;swimlaneBody=0;fillColor=none;collapsible=0;dropTarget=0;points=[[0,0.5],[1,0.5]];portConstraint=eastwest;top=0;left=0;right=0;bottom=0;strokeColor=#BAC8D3;fontSize=16;fontColor=#EEEEEE;" vertex="1" parent="HmvhqRgsKepvLTDn4VfP-176">
          <mxGeometry y="60" width="234" height="30" as="geometry" />
        </mxCell>
        <mxCell id="HmvhqRgsKepvLTDn4VfP-181" value="" style="shape=partialRectangle;connectable=0;fillColor=none;top=0;left=0;bottom=0;right=0;editable=1;overflow=hidden;strokeColor=#BAC8D3;fontSize=16;fontColor=#EEEEEE;" vertex="1" parent="HmvhqRgsKepvLTDn4VfP-180">
          <mxGeometry width="30" height="30" as="geometry">
            <mxRectangle width="30" height="30" as="alternateBounds" />
          </mxGeometry>
        </mxCell>
        <mxCell id="HmvhqRgsKepvLTDn4VfP-182" value="ATM_ADDRESS" style="shape=partialRectangle;connectable=0;fillColor=none;top=0;left=0;bottom=0;right=0;align=left;spacingLeft=6;overflow=hidden;strokeColor=#BAC8D3;fontSize=16;fontColor=#EEEEEE;" vertex="1" parent="HmvhqRgsKepvLTDn4VfP-180">
          <mxGeometry x="30" width="204" height="30" as="geometry">
            <mxRectangle width="204" height="30" as="alternateBounds" />
          </mxGeometry>
        </mxCell>
        <mxCell id="HmvhqRgsKepvLTDn4VfP-183" value="" style="shape=tableRow;horizontal=0;startSize=0;swimlaneHead=0;swimlaneBody=0;fillColor=none;collapsible=0;dropTarget=0;points=[[0,0.5],[1,0.5]];portConstraint=eastwest;top=0;left=0;right=0;bottom=0;strokeColor=#BAC8D3;fontSize=16;fontColor=#EEEEEE;" vertex="1" parent="HmvhqRgsKepvLTDn4VfP-176">
          <mxGeometry y="90" width="234" height="30" as="geometry" />
        </mxCell>
        <mxCell id="HmvhqRgsKepvLTDn4VfP-184" value="" style="shape=partialRectangle;connectable=0;fillColor=none;top=0;left=0;bottom=0;right=0;editable=1;overflow=hidden;strokeColor=#BAC8D3;fontSize=16;fontColor=#EEEEEE;" vertex="1" parent="HmvhqRgsKepvLTDn4VfP-183">
          <mxGeometry width="30" height="30" as="geometry">
            <mxRectangle width="30" height="30" as="alternateBounds" />
          </mxGeometry>
        </mxCell>
        <mxCell id="HmvhqRgsKepvLTDn4VfP-185" value="ATM_STREET" style="shape=partialRectangle;connectable=0;fillColor=none;top=0;left=0;bottom=0;right=0;align=left;spacingLeft=6;overflow=hidden;strokeColor=#BAC8D3;fontSize=16;fontColor=#EEEEEE;" vertex="1" parent="HmvhqRgsKepvLTDn4VfP-183">
          <mxGeometry x="30" width="204" height="30" as="geometry">
            <mxRectangle width="204" height="30" as="alternateBounds" />
          </mxGeometry>
        </mxCell>
        <mxCell id="HmvhqRgsKepvLTDn4VfP-186" value="" style="shape=tableRow;horizontal=0;startSize=0;swimlaneHead=0;swimlaneBody=0;fillColor=none;collapsible=0;dropTarget=0;points=[[0,0.5],[1,0.5]];portConstraint=eastwest;top=0;left=0;right=0;bottom=0;strokeColor=#BAC8D3;fontSize=16;fontColor=#EEEEEE;" vertex="1" parent="HmvhqRgsKepvLTDn4VfP-176">
          <mxGeometry y="120" width="234" height="30" as="geometry" />
        </mxCell>
        <mxCell id="HmvhqRgsKepvLTDn4VfP-187" value="" style="shape=partialRectangle;connectable=0;fillColor=none;top=0;left=0;bottom=0;right=0;editable=1;overflow=hidden;strokeColor=#BAC8D3;fontSize=16;fontColor=#EEEEEE;" vertex="1" parent="HmvhqRgsKepvLTDn4VfP-186">
          <mxGeometry width="30" height="30" as="geometry">
            <mxRectangle width="30" height="30" as="alternateBounds" />
          </mxGeometry>
        </mxCell>
        <mxCell id="HmvhqRgsKepvLTDn4VfP-188" value="ATM_NUMBER" style="shape=partialRectangle;connectable=0;fillColor=none;top=0;left=0;bottom=0;right=0;align=left;spacingLeft=6;overflow=hidden;strokeColor=#BAC8D3;fontSize=16;fontColor=#EEEEEE;" vertex="1" parent="HmvhqRgsKepvLTDn4VfP-186">
          <mxGeometry x="30" width="204" height="30" as="geometry">
            <mxRectangle width="204" height="30" as="alternateBounds" />
          </mxGeometry>
        </mxCell>
        <mxCell id="HmvhqRgsKepvLTDn4VfP-189" value="" style="shape=tableRow;horizontal=0;startSize=0;swimlaneHead=0;swimlaneBody=0;fillColor=none;collapsible=0;dropTarget=0;points=[[0,0.5],[1,0.5]];portConstraint=eastwest;top=0;left=0;right=0;bottom=0;strokeColor=#BAC8D3;fontSize=16;fontColor=#EEEEEE;" vertex="1" parent="HmvhqRgsKepvLTDn4VfP-176">
          <mxGeometry y="150" width="234" height="30" as="geometry" />
        </mxCell>
        <mxCell id="HmvhqRgsKepvLTDn4VfP-190" value="" style="shape=partialRectangle;connectable=0;fillColor=none;top=0;left=0;bottom=0;right=0;editable=1;overflow=hidden;strokeColor=#BAC8D3;fontSize=16;fontColor=#EEEEEE;" vertex="1" parent="HmvhqRgsKepvLTDn4VfP-189">
          <mxGeometry width="30" height="30" as="geometry">
            <mxRectangle width="30" height="30" as="alternateBounds" />
          </mxGeometry>
        </mxCell>
        <mxCell id="HmvhqRgsKepvLTDn4VfP-191" value="ATM_DISTRICT" style="shape=partialRectangle;connectable=0;fillColor=none;top=0;left=0;bottom=0;right=0;align=left;spacingLeft=6;overflow=hidden;strokeColor=#BAC8D3;fontSize=16;fontColor=#EEEEEE;" vertex="1" parent="HmvhqRgsKepvLTDn4VfP-189">
          <mxGeometry x="30" width="204" height="30" as="geometry">
            <mxRectangle width="204" height="30" as="alternateBounds" />
          </mxGeometry>
        </mxCell>
        <mxCell id="HmvhqRgsKepvLTDn4VfP-192" value="" style="shape=tableRow;horizontal=0;startSize=0;swimlaneHead=0;swimlaneBody=0;fillColor=none;collapsible=0;dropTarget=0;points=[[0,0.5],[1,0.5]];portConstraint=eastwest;top=0;left=0;right=0;bottom=0;strokeColor=#BAC8D3;fontSize=16;fontColor=#EEEEEE;" vertex="1" parent="HmvhqRgsKepvLTDn4VfP-176">
          <mxGeometry y="180" width="234" height="30" as="geometry" />
        </mxCell>
        <mxCell id="HmvhqRgsKepvLTDn4VfP-193" value="" style="shape=partialRectangle;connectable=0;fillColor=none;top=0;left=0;bottom=0;right=0;editable=1;overflow=hidden;strokeColor=#BAC8D3;fontSize=16;fontColor=#EEEEEE;" vertex="1" parent="HmvhqRgsKepvLTDn4VfP-192">
          <mxGeometry width="30" height="30" as="geometry">
            <mxRectangle width="30" height="30" as="alternateBounds" />
          </mxGeometry>
        </mxCell>
        <mxCell id="HmvhqRgsKepvLTDn4VfP-194" value="ATM_PROVINCE" style="shape=partialRectangle;connectable=0;fillColor=none;top=0;left=0;bottom=0;right=0;align=left;spacingLeft=6;overflow=hidden;strokeColor=#BAC8D3;fontSize=16;fontColor=#EEEEEE;" vertex="1" parent="HmvhqRgsKepvLTDn4VfP-192">
          <mxGeometry x="30" width="204" height="30" as="geometry">
            <mxRectangle width="204" height="30" as="alternateBounds" />
          </mxGeometry>
        </mxCell>
      </root>
    </mxGraphModel>
  </diagram>
</mxfile>
